<?xml version="1.0" standalone="no"?>
<svg width="404" height="404" title="polygons" version="1.1" viewBox="0 0 404 404" xmlns="http://www.w3.org/2000/svg" class="svg-paper">
<!----> <g>
  <desc>pwidth:404;pheight:404;pcolor:#00000000;seed:1};sf:i+i*7;rf:10*sin(i/2);xf:200;yf:200;qt:17;sd:6;rn:-2;minrd:5;maxrd:50;mina:0;maxa:360;cv:curveCardinalClosed;rd:false</desc> 
  <path stroke="#1FB795" stroke-width="0.8mm" fill="none" d="M204.33,202.5C206.50,198.75,206.50,201.25,204.33,197.5C202.17,193.75,204.33,195,200,195C195.67,195,197.83,193.75,195.67,197.5C193.50,201.25,193.50,198.75,195.67,202.5C197.83,206.25,195.67,205,200,205C204.33,205,202.17,206.25,204.33,202.5"/><path stroke="#1FB795" stroke-width="0.8mm" fill="none" d="M211.76,205.54C216.56,195.35,217.10,201.83,210.68,192.58C204.25,183.34,210.13,186.10,198.91,187.05C187.69,187.99,193.03,184.28,188.24,194.46C183.44,204.65,182.90,198.17,189.32,207.42C195.75,216.66,189.87,213.90,201.09,212.95C212.31,212.01,206.97,215.72,211.76,205.54"/><path stroke="#1FB795" stroke-width="0.8mm" fill="none" d="M219.53,207.73C226.22,190.81,227.75,201.20,216.45,186.95C205.15,172.70,214.92,176.56,196.93,179.23C178.94,181.89,187.16,175.36,180.47,192.27C173.78,209.19,172.25,198.80,183.55,213.05C194.85,227.30,185.08,223.44,203.07,220.77C221.06,218.11,212.84,224.64,219.53,207.73"/><path stroke="#1FB795" stroke-width="0.8mm" fill="none" d="M227.25,209.93C235.85,186.33,238.36,200.61,222.22,181.37C206.09,162.12,219.71,167.09,194.98,171.44C170.24,175.79,181.35,166.47,172.75,190.07C164.15,213.67,161.64,199.39,177.78,218.63C193.91,237.88,180.29,232.91,205.02,228.56C229.76,224.21,218.65,233.53,227.25,209.93"/><path stroke="#1FB795" stroke-width="0.8mm" fill="none" d="M234.56,213.20C246.00,183.27,248.92,201.54,228.72,176.67C208.51,151.80,225.79,158.40,194.15,163.46C162.51,168.53,176.87,156.86,165.44,186.80C154.00,216.73,151.08,198.46,171.28,223.33C191.49,248.20,174.21,241.60,205.85,236.54C237.49,231.47,223.13,243.14,234.56,213.20"/><path stroke="#1FB795" stroke-width="0.8mm" fill="none" d="M241.10,218.31C256.97,182.72,259.31,205.09,236.41,173.56C213.51,142.02,234.07,151.18,195.31,155.25C156.55,159.31,174.76,146.09,158.90,181.69C143.03,217.28,140.69,194.91,163.59,226.44C186.49,257.98,165.93,248.82,204.69,244.75C243.45,240.69,225.24,253.91,241.10,218.31"/><path stroke="#1FB795" stroke-width="0.8mm" fill="none" d="M246.54,225.36C268.50,185.06,269.15,211.55,245.23,172.38C221.31,133.20,244.58,145.89,198.69,147.02C152.81,148.15,175.43,134.34,153.46,174.64C131.50,214.94,130.85,188.45,154.77,227.62C178.69,266.80,155.42,254.11,201.31,252.98C247.19,251.85,224.57,265.66,246.54,225.36"/><path stroke="#1FB795" stroke-width="0.8mm" fill="none" d="M250.86,233.68C280.03,189.63,278.16,220.07,254.59,172.79C231.03,125.51,256.46,142.35,203.73,139.11C151.00,135.88,178.30,122.28,149.14,166.32C119.97,210.37,121.84,179.93,145.41,227.21C168.97,274.49,143.54,257.65,196.27,260.89C249.00,264.12,221.70,277.72,250.86,233.68"/><path stroke="#1FB795" stroke-width="0.8mm" fill="none" d="M254.69,242.07C291.12,194.71,286.58,228.90,263.78,173.67C240.98,118.44,268.32,139.47,209.09,131.60C149.85,123.73,181.74,110.57,145.31,157.93C108.88,205.29,113.42,171.10,136.22,226.33C159.02,281.56,131.68,260.53,190.91,268.40C250.15,276.27,218.26,289.43,254.69,242.07"/><path stroke="#1FB795" stroke-width="0.8mm" fill="none" d="M259.18,249.26C301.84,198.01,295.31,235.95,272.25,173.38C249.20,110.81,278.79,135.44,213.07,124.12C147.36,112.80,183.48,99.49,140.82,150.74C98.16,201.99,104.69,164.05,127.75,226.62C150.80,289.19,121.21,264.56,186.93,275.88C252.64,287.20,216.52,300.51,259.18,249.26"/><path stroke="#1FB795" stroke-width="0.8mm" fill="none" d="M265.50,254.17C312.42,197.44,305.34,239.35,279.66,170.36C253.99,101.37,286.74,128.45,214.16,116.19C141.58,103.93,181.41,89.10,134.50,145.83C87.58,202.56,94.66,160.65,120.34,229.64C146.01,298.63,113.26,271.55,185.84,283.81C258.42,296.07,218.59,310.90,265.50,254.17"/><path stroke="#1FB795" stroke-width="0.8mm" fill="none" d="M274.22,256.04C322.75,191.77,317.04,237.91,285.64,163.74C254.24,89.58,291.35,117.60,211.42,107.70C131.49,97.81,174.31,79.68,125.78,143.96C77.25,208.23,82.96,162.09,114.36,236.26C145.76,310.42,108.65,282.40,188.58,292.30C268.51,302.19,225.69,320.32,274.22,256.04"/><path stroke="#1FB795" stroke-width="0.8mm" fill="none" d="M284.90,254.70C332.28,181.18,329.82,231.62,289.83,153.82C249.84,76.03,292.29,103.38,204.92,99.12C117.56,94.86,162.47,71.77,115.10,145.30C67.72,218.82,70.18,168.38,110.17,246.18C150.16,323.97,107.71,296.62,195.08,300.88C282.44,305.14,237.53,328.23,284.90,254.70"/><path stroke="#1FB795" stroke-width="0.8mm" fill="none" d="M296.38,250.92C340.47,167.45,342.52,221.92,292.28,142.00C242.05,62.07,290.24,87.53,195.91,91.08C101.58,94.62,147.72,65.62,103.62,149.08C59.53,232.55,57.48,178.08,107.72,258.00C157.95,337.93,109.76,312.47,204.09,308.92C298.42,305.38,252.28,334.38,296.38,250.92"/><path stroke="#1FB795" stroke-width="0.8mm" fill="none" d="M307.35,246.52C347.64,153.55,354.34,211.67,293.97,130.29C233.60,48.91,287.27,72.18,186.61,83.77C85.95,95.36,132.94,60.51,92.65,153.48C52.36,246.45,45.66,188.33,106.03,269.71C166.40,351.09,112.73,327.82,213.39,316.23C314.05,304.64,267.06,339.49,307.35,246.52"/><path stroke="#1FB795" stroke-width="0.8mm" fill="none" d="M316.99,244.02C355.12,142.70,365.30,204.37,296.62,120.69C227.94,37.02,286.43,59.03,179.63,76.67C72.82,94.31,121.13,54.66,83.01,155.98C44.88,257.30,34.70,195.63,103.38,279.31C172.06,362.98,113.57,340.97,220.37,323.33C327.18,305.69,278.87,345.34,316.99,244.02"/><path stroke="#1FB795" stroke-width="0.8mm" fill="none" d="M324.89,245.72C364.49,137.56,375.92,203.07,302.04,114.70C228.17,26.33,290.62,49.19,177.15,68.98C63.68,88.77,114.70,46.12,75.11,154.28C35.51,262.44,24.08,196.93,97.96,285.30C171.83,373.67,109.38,350.81,222.85,331.02C336.32,311.23,285.30,353.88,324.89,245.72"/></g>
  <path stroke="#4A90E2" stroke-width="0.8mm" fill="none" d="M204.87,198.88C203.90,194.66,205.60,196.48,201.46,195.22C197.32,193.95,199.76,193.39,196.59,196.34C193.42,199.30,194.15,196.91,195.13,201.12C196.10,205.34,194.40,203.52,198.54,204.78C202.68,206.05,200.24,206.61,203.41,203.66C206.58,200.70,205.85,203.09,204.87,198.88"/><path stroke="#4A90E2" stroke-width="0.8mm" fill="none" d="M212.38,196.03C208.94,185.31,213.75,189.67,202.75,187.29C191.74,184.91,197.93,182.93,190.37,191.27C182.81,199.61,184.18,193.25,187.62,203.97C191.06,214.69,186.25,210.33,197.25,212.71C208.26,215.09,202.07,217.07,209.63,208.73C217.19,200.39,215.82,206.75,212.38,196.03"/><path stroke="#4A90E2" stroke-width="0.8mm" fill="none" d="M219.55,192.33C212.91,175.40,221.12,181.95,203.13,179.24C185.15,176.52,194.93,172.69,183.58,186.90C172.24,201.12,173.81,190.74,180.45,207.67C187.09,224.60,178.88,218.05,196.87,220.76C214.85,223.48,205.07,227.31,216.42,213.10C227.76,198.88,226.19,209.26,219.55,192.33"/><path stroke="#4A90E2" stroke-width="0.8mm" fill="none" d="M226.70,188.68C216.90,165.56,228.47,174.29,203.55,171.22C178.62,168.15,191.97,162.49,176.85,182.54C161.72,202.59,163.50,188.20,173.30,211.32C183.10,234.44,171.53,225.71,196.45,228.78C221.38,231.85,208.03,237.51,223.15,217.46C238.28,197.41,236.50,211.80,226.70,188.68"/><path stroke="#4A90E2" stroke-width="0.8mm" fill="none" d="M234.28,186.08C222.23,156.39,236.83,167.76,205.09,163.35C173.35,158.94,190.49,151.99,170.81,177.27C151.12,202.55,153.67,184.23,165.72,213.92C177.77,243.61,163.17,232.24,194.91,236.65C226.65,241.06,209.51,248.01,229.19,222.73C248.88,197.45,246.33,215.77,234.28,186.08"/><path stroke="#4A90E2" stroke-width="0.8mm" fill="none" d="M242.55,185.36C229.87,148.51,246.85,163.28,208.60,155.83C170.35,148.38,191.62,141.06,166.05,170.47C140.47,199.87,144.77,177.79,157.45,214.64C170.13,251.49,153.15,236.72,191.40,244.17C229.65,251.62,208.38,258.94,233.95,229.53C259.53,200.13,255.23,222.21,242.55,185.36"/><path stroke="#4A90E2" stroke-width="0.8mm" fill="none" d="M251.33,186.81C239.91,142.35,258.45,161.28,214.24,148.95C170.03,136.61,195.70,130.02,162.91,162.14C130.12,194.26,137.24,168.74,148.67,213.19C160.09,257.65,141.55,238.72,185.76,251.05C229.97,263.39,204.30,269.98,237.09,237.86C269.88,205.74,262.76,231.26,251.33,186.81"/><path stroke="#4A90E2" stroke-width="0.8mm" fill="none" d="M260.16,189.94C251.45,137.84,270.85,161.37,221.37,142.87C171.89,124.36,201.97,119.33,161.21,152.93C120.44,186.52,131.12,157.96,139.84,210.06C148.55,262.16,129.15,238.63,178.63,257.13C228.11,275.64,198.03,280.67,238.79,247.07C279.56,213.48,268.88,242.04,260.16,189.94"/><path stroke="#4A90E2" stroke-width="0.8mm" fill="none" d="M268.69,193.47C263.03,133.98,283.03,162.09,228.69,137.25C174.34,112.40,208.69,109.14,160.00,143.78C111.31,178.42,125.65,147.04,131.31,206.53C136.97,266.02,116.97,237.91,171.31,262.75C225.66,287.60,191.31,290.86,240.00,256.22C288.69,221.58,274.35,252.96,268.69,193.47"/><path stroke="#4A90E2" stroke-width="0.8mm" fill="none" d="M276.88,195.67C273.13,129.09,294.22,161.30,234.69,131.26C175.15,101.22,213.59,99.05,157.81,135.59C102.03,172.13,119.37,137.75,123.12,204.33C126.87,270.91,105.78,238.70,165.31,268.74C224.85,298.78,186.41,300.95,242.19,264.41C297.97,227.87,280.63,262.25,276.88,195.67"/><path stroke="#4A90E2" stroke-width="0.8mm" fill="none" d="M284.85,194.94C280.47,121.46,303.87,156.94,238.05,123.99C172.22,91.04,214.64,88.51,153.20,129.05C91.75,169.58,110.77,131.58,115.15,205.06C119.53,278.54,96.13,243.06,161.95,276.01C227.78,308.96,185.36,311.49,246.80,270.95C308.25,230.42,289.23,268.42,284.85,194.94"/><path stroke="#4A90E2" stroke-width="0.8mm" fill="none" d="M292.50,190.37C284.16,110.26,311.45,147.91,237.91,115.08C164.36,82.25,210.61,77.43,145.41,124.71C80.20,171.99,99.16,129.52,107.50,209.63C115.84,289.74,88.55,252.09,162.09,284.92C235.64,317.75,189.39,322.57,254.59,275.29C319.80,228.01,300.84,270.48,292.50,190.37"/><path stroke="#4A90E2" stroke-width="0.8mm" fill="none" d="M299.40,182.10C283.90,96.02,316.50,134.59,234.20,104.97C151.90,75.35,201.60,66.40,134.80,122.86C68.00,179.33,85.10,131.81,100.60,217.90C116.10,303.98,83.50,265.41,165.80,295.03C248.10,324.65,198.40,333.60,265.20,277.14C332.00,220.67,314.90,268.19,299.40,182.10"/><path stroke="#4A90E2" stroke-width="0.8mm" fill="none" d="M305.21,171.51C280.54,80.40,319.18,118.83,227.93,94.64C136.69,70.45,189.29,56.20,122.72,123.13C56.15,190.05,70.12,137.37,94.79,228.49C119.46,319.60,80.82,281.17,172.07,305.36C263.31,329.55,210.71,343.80,277.28,276.87C343.85,209.95,329.88,262.63,305.21,171.51"/><path stroke="#4A90E2" stroke-width="0.8mm" fill="none" d="M310.24,160.81C276.30,65.34,320.83,103.28,221.18,84.93C121.53,66.59,176.65,46.99,110.94,124.12C45.23,201.25,55.82,143.72,89.76,239.19C123.70,334.66,79.17,296.72,178.82,315.07C278.47,333.41,223.35,353.01,289.06,275.88C354.77,198.75,344.18,256.28,310.24,160.81"/><path stroke="#4A90E2" stroke-width="0.8mm" fill="none" d="M315.58,152.41C274.37,52.31,323.87,90.46,216.58,76.10C109.28,61.75,167.07,37.95,100.99,123.70C34.91,209.44,43.20,147.49,84.42,247.59C125.63,347.69,76.13,309.54,183.42,323.90C290.72,338.25,232.93,362.05,299.01,276.30C365.09,190.56,356.80,252.51,315.58,152.41"/><path stroke="#4A90E2" stroke-width="0.8mm" fill="none" d="M322.52,148.26C277.72,42.15,330.75,82.27,216.45,68.02C102.16,53.77,163.42,27.90,93.93,119.76C24.44,211.62,32.67,145.63,77.48,251.74C122.28,357.85,69.25,317.73,183.55,331.98C297.84,346.23,236.58,372.10,306.07,280.24C375.56,188.38,367.33,254.37,322.52,148.26"/>
</svg>